<svg xmlns="http://www.w3.org/2000/svg" width="1024" height="1024" viewBox="0 0 1024 1024"><!-- Home-screen icon from development/plans/app-icons (the Field set). Full bleed: the platform rounds the corners. PNGs in public/icons are rendered from this by landing/tools/app-icons. --><defs><linearGradient id="gAcantina" x1="0.25" y1="0" x2="0.75" y2="1"><stop offset="0" stop-color="#86dca9"/><stop offset="1" stop-color="#2c8a54"/></linearGradient><linearGradient id="wAcantina" gradientUnits="userSpaceOnUse" x1="0" y1="230" x2="0" y2="800"><stop offset="0" stop-color="#ffffff"/><stop offset="1" stop-color="#eef0f6"/></linearGradient><radialGradient id="sAcantina" cx="0.5" cy="-0.1" r="0.9"><stop offset="0" stop-color="#fff" stop-opacity="0.22"/><stop offset="1" stop-color="#fff" stop-opacity="0"/></radialGradient><filter id="dAcantina" x="-20%" y="-20%" width="140%" height="140%"><feGaussianBlur in="SourceAlpha" stdDeviation="16" result="b"/><feOffset in="b" dy="14" result="o"/><feFlood flood-color="#0f4a28" flood-opacity="0.38" result="c"/><feComposite in="c" in2="o" operator="in" result="s"/><feMerge><feMergeNode in="s"/><feMergeNode in="SourceGraphic"/></feMerge></filter></defs><g ><rect width="1024" height="1024" fill="url(#gAcantina)"/><rect width="1024" height="1024" fill="url(#sAcantina)"/><g filter="url(#dAcantina)"><g transform="translate(512 512) scale(1) translate(-512 -512)"><path d="M178 278 a20 20 0 0 1 40 0 V400 h18 V278 a20 20 0 0 1 40 0 V400 h18 V278 a20 20 0 0 1 40 0 V430 c0 46 -26 76 -60 88 V732 a38 38 0 0 1 -76 0 V518 c-34 -12 -60 -42 -60 -88 Z" fill="url(#wAcantina)" /><path d="M808 264 c-64 30 -92 120 -92 214 c0 30 12 48 38 56 V732 a38 38 0 0 0 76 0 V300 c0 -26 -10 -42 -22 -36 Z" fill="url(#wAcantina)" /><circle cx="512" cy="512" r="138" fill="none" stroke="url(#wAcantina)" stroke-width="57.599999999999994"/><circle cx="512" cy="512" r="63" fill="#e4f78f" /></g></g></g></svg>
